PathFileType	4	(X/Y/Z)	/Users/niels/Desktop/University/Third Semester/Perception and Action/Exam/Gymnastics Motion Tracking/Code for Gym Tracking/Analyzed Data/Webcam_Backflip/id7_4_trajectory_Sports2D/id7_4_trajectory_Sports2D_px_person00.trc
DataRate	CameraRate	NumFrames	NumMarkers	Units	OrigDataRate	OrigDataStartFrame	OrigNumFrames
29.8125	29.8125	12	22	m	29.8125	60	160
Frame#	Time	Hip			RHip			RKnee			RAnkle			RBigToe			RSmallToe			RHeel			LHip			LKnee			LAnkle			LBigToe			LSmallToe			LHeel			Neck			Head			Nose			RShoulder			RElbow			RWrist			LShoulder			LElbow			LWrist		
		X1	Y1	Z1	X2	Y2	Z2	X3	Y3	Z3	X4	Y4	Z4	X5	Y5	Z5	X6	Y6	Z6	X7	Y7	Z7	X8	Y8	Z8	X9	Y9	Z9	X10	Y10	Z10	X11	Y11	Z11	X12	Y12	Z12	X13	Y13	Z13	X14	Y14	Z14	X15	Y15	Z15	X16	Y16	Z16	X17	Y17	Z17	X18	Y18	Z18	X19	Y19	Z19	X20	Y20	Z20	X21	Y21	Z21	X22	Y22	Z22
60	2.012578616352201	0.8416049454333356	-0.6477851494070572	0.0	0.8424769655358345	-0.6517668379587412	0.0	0.9434233123572044	-0.6476115858915094	0.0	0.9925148265742183	-0.7337896508277175	0.0	1.0284592334750446	-0.7194096753212905	0.0	1.0256231671774303	-0.7247814603336713	0.0	0.9936738989251347	-0.7472380414709376	0.0	0.8466047983765459	-0.6442353239803033	0.0	0.9381021358217211	-0.6395687412093898	0.0	0.9808277666570078	-0.7167885668174464	0.0	1.0135905950510915	-0.6962407954785335	0.0	1.0050486091864574	-0.7008969593646003	0.0	0.9813793995699112	-0.7340533052066173	0.0	0.8998884280566739	-0.5303483967145749	0.0	0.9481045371099157	-0.4842938263468708	0.0	0.9410495578874428	-0.5243823468187938	0.0	0.8964524039716432	-0.5391851404997838	0.0	0.9108147851042157	-0.5826056041230969	0.0	0.9414577757526982	-0.605591252079809	0.0	0.8862862210886928	-0.5290314311586664	0.0	0.8956617161039164	-0.5749861926641887	0.0	0.9399838814375835	-0.5812867252019241	0.0
61	2.0461215932914043	0.8206001639923578	-0.6345456378456039	0.0	0.8202393217695507	-0.6392808967634225	0.0	0.9229591303097902	-0.6140169411362936	0.0	0.9895693428549438	-0.687117352101915	0.0	1.0236841698311918	-0.6644183654564455	0.0	1.0225797853463756	-0.6718759767434649	0.0	0.9943519325625522	-0.6999154731585735	0.0	0.8285302206578761	-0.6280897280863361	0.0	0.9198470361718422	-0.6016299962223293	0.0	0.9797092155943509	-0.6620241963068731	0.0	1.0077860956754086	-0.6355839202274881	0.0	1.0017587692256666	-0.6377678471564838	0.0	0.9835913903335315	-0.677653944066765	0.0	0.88039979038933	-0.5193227330468778	0.0	0.9326875962152389	-0.4777218261582424	0.0	0.9221983686978944	-0.5166086238461693	0.0	0.8750453656607214	-0.5291576155287082	0.0	0.8804869251203897	-0.5826545037772719	0.0	0.9006436672515625	-0.6181220298842486	0.0	0.868715988148463	-0.5170979854687106	0.0	0.8788209858205686	-0.5719400284290352	0.0	0.9163791777434938	-0.5855698940970633	0.0
62	2.079664570230608	0.8021650170924509	-0.6226515905146787	0.0	0.8005259821792491	-0.628217551321937	0.0	0.9028128739440008	-0.5879286142759258	0.0	0.9858578866412234	-0.6458400821909148	0.0	1.0170400030234534	-0.6159705258684184	0.0	1.0175711604580244	-0.6252264989631704	0.0	0.9937550550441024	-0.6574405483248607	0.0	0.8121311963499431	-0.612900873992621	0.0	0.9006392596668586	-0.5710382263822447	0.0	0.9755564368517355	-0.6115264347700579	0.0	0.9988371094683223	-0.580076566277599	0.0	0.9939920740981011	-0.5809996487110684	0.0	0.9827180083143412	-0.6243375855989959	0.0	0.8562356000715498	-0.5073985315964649	0.0	0.9114597477473267	-0.46777976153133416	0.0	0.8984246480885064	-0.5058104230786725	0.0	0.8490656795500929	-0.519117948086127	0.0	0.8445992707870927	-0.5802818810858653	0.0	0.8546763996452736	-0.6270670770895285	0.0	0.8461976774134807	-0.5045543013714596	0.0	0.8522276714201035	-0.5653229129242772	0.0	0.8804786130374008	-0.5854936942018412	0.0
63	2.113207547169811	0.7862315195411234	-0.6129152521577407	0.0	0.7834010963866822	-0.6195366277928629	0.0	0.8842282942024126	-0.5705003811922008	0.0	0.9808917141477327	-0.6132930499456632	0.0	1.0083039456089238	-0.578006434724783	0.0	1.0103756763616853	-0.5884917735032441	0.0	0.9910272521769269	-0.6233267949075347	0.0	0.7970830618474418	-0.60005063439194	0.0	0.8819559069389545	-0.5493338215755003	0.0	0.9683284138198234	-0.5703854668375827	0.0	0.9876310853141221	-0.5357769453098354	0.0	0.9830454454417593	-0.5363777215271137	0.0	0.9783290984983721	-0.5798181498704095	0.0	0.8269745672776183	-0.49631753798388506	0.0	0.8830599586566585	-0.45536084852570513	0.0	0.8692628064207285	-0.4931772097761328	0.0	0.8180662908876377	-0.5104553718833581	0.0	0.8042373735566498	-0.5764864942458087	0.0	0.8064269286751554	-0.6326951441608193	0.0	0.8184892171559734	-0.4933639451898135	0.0	0.8161368211616755	-0.5581779759767834	0.0	0.8333775725195457	-0.5850665938776426	0.0
64	2.1467505241090143	0.7720982026404057	-0.6054209092027959	0.0	0.7683230996991149	-0.6133853205781102	0.0	0.8676856999359089	-0.5609950781507239	0.0	0.9743686722112457	-0.5906230581957418	0.0	0.99781501831795	-0.551716518315878	0.0	1.0013383408040037	-0.5629516849933746	0.0	0.9859038701431377	-0.5990076663344952	0.0	0.7828612326544031	-0.5901468049882954	0.0	0.8647793128299593	-0.5360292043776209	0.0	0.9586327383507923	-0.5407384698037118	0.0	0.9754880706196711	-0.5048399103567002	0.0	0.9707289903614087	-0.5056403146804432	0.0	0.9708324307166841	-0.5469785892134321	0.0	0.7931861080749563	-0.48783444903434675	0.0	0.847031199993228	-0.44230539670532276	0.0	0.835041921532913	-0.4805887464810186	0.0	0.7823984642923972	-0.5045076253544732	0.0	0.761342968219338	-0.5733902694902102	0.0	0.7589006972380019	-0.6365181461049765	0.0	0.7866476764788707	-0.4855087395791426	0.0	0.7749401855434142	-0.5531863635841215	0.0	0.7822633756968681	-0.5869622222025784	0.0
65	2.180293501048218	0.7587485159977801	-0.5998521166485169	0.0	0.7543207328672465	-0.6093553185444224	0.0	0.8530032934681072	-0.5578643442644248	0.0	0.9660704708680616	-0.5771380872446361	0.0	0.9860362618469452	-0.5362787708749169	0.0	0.9908693009520224	-0.5480336757308121	0.0	0.9784454638620386	-0.5840504292473006	0.0	0.7688503670206817	-0.5831700093222468	0.0	0.8493622100323502	-0.5296934629145736	0.0	0.9472566162929033	-0.5217749903147693	0.0	0.9633490694271121	-0.48577073159192036	0.0	0.9582953730098608	-0.48694103015460644	0.0	0.9610115503915156	-0.5255147250562691	0.0	0.7561781016355104	-0.48339146569290614	0.0	0.8036977594761123	-0.43087728071643494	0.0	0.7966576346536812	-0.4700746754664815	0.0	0.7432662010994937	-0.502408702658396	0.0	0.7180164751280317	-0.5731087106512418	0.0	0.7141633008073912	-0.6406426159712326	0.0	0.7525173140024379	-0.4823635872556542	0.0	0.7340819605770538	-0.5517664965573187	0.0	0.7350985482940021	-0.5914111015680761	0.0
66	2.213836477987421	0.7450290845941051	-0.5961097236622183	0.0	0.7402099809071191	-0.607173014320302	0.0	0.8395481211457549	-0.5594865901405817	0.0	0.9557610807227881	-0.5710806392943578	0.0	0.9732593072359195	-0.5296639004959058	0.0	0.9791631319556162	-0.5419346822106911	0.0	0.9687286892388102	-0.5768282256280909	0.0	0.7542329900671304	-0.5789618752630084	0.0	0.8351882619661057	-0.5286985294853038	0.0	0.9347575401284143	-0.5112501428894057	0.0	0.9514835605438691	-0.4754381305646539	0.0	0.9461656769269491	-0.47694621817232963	0.0	0.9495476350050378	-0.5134076916560096	0.0	0.7174654896845709	-0.4839674867162173	0.0	0.7542525475523945	-0.42320644697510335	0.0	0.7552886480727179	-0.46335853593400966	0.0	0.7024761267109834	-0.505075503907677	0.0	0.675809715261369	-0.5771543146267177	0.0	0.6728899741887544	-0.6471320150844576	0.0	0.7178246942185612	-0.4843912996342954	0.0	0.6968831511632309	-0.5542785150377952	0.0	0.6962502995055423	-0.5978011370357873	0.0
67	2.2473794549266244	0.7298463016269926	-0.5946494453136073	0.0	0.7249356910498405	-0.6071862719628298	0.0	0.8265427066654257	-0.5645837867152586	0.0	0.9432394089823353	-0.570482844166125	0.0	0.9596097726575783	-0.5294275930233209	0.0	0.9662674120859482	-0.5423653503916293	0.0	0.9567787396405285	-0.5753366301468509	0.0	0.7380818648771525	-0.577573850055293	0.0	0.8212796386657374	-0.5316000583817041	0.0	0.921293316472922	-0.5069067185097219	0.0	0.9396121386943584	-0.4708683933879959	0.0	0.9341179518176314	-0.47261828537162365	0.0	0.936782675292688	-0.5084201684478776	0.0	0.6784133933039296	-0.4900134772369314	0.0	0.7008410062073426	-0.42094311600481615	0.0	0.7122685085834369	-0.46166314396975755	0.0	0.6619688321196932	-0.5131289777844471	0.0	0.6353938454167375	-0.5864248119055664	0.0	0.6345160859157442	-0.6575779533486604	0.0	0.6835483040726651	-0.4913473893097487	0.0	0.6637728193685379	-0.5605626361203044	0.0	0.6662024014026521	-0.6058922929262158	0.0
68	2.280922431865828	0.7125025320895062	-0.5962902064321733	0.0	0.7079231573857068	-0.6102190634166056	0.0	0.8132729833157561	-0.5724146285379447	0.0	0.9284458338128558	-0.5737015169449546	0.0	0.9451344719864673	-0.5334301615506806	0.0	0.9522069802880159	-0.547254248378278	0.0	0.9426315440549582	-0.577787175452	0.0	0.7197835120466021	-0.5793161554065192	0.0	0.8066584399329473	-0.5372833315730342	0.0	0.9066547978358126	-0.506968789970152	0.0	0.9271126141887085	-0.4698361299834856	0.0	0.9215174755346169	-0.471760754688248	0.0	0.9226635401227773	-0.508579573337918	0.0	0.6401811499393427	-0.5014784598799392	0.0	0.6463462890631462	-0.42519098071193306	0.0	0.6690613733993678	-0.4657658548599467	0.0	0.6233353727290829	-0.5266592130884414	0.0	0.5968121517822413	-0.6011474162155593	0.0	0.5978556012803763	-0.6726617272921599	0.0	0.6499948443392064	-0.5027560488855742	0.0	0.6335187833074836	-0.5703669415149457	0.0	0.6429378273425278	-0.6157594367938571	0.0
69	2.314465408805031	0.6929476582611979	-0.6019151068514926	0.0	0.68924775951957	-0.617208075899049	0.0	0.7989890739946566	-0.5827440037934355	0.0	0.9114333233226262	-0.5796147565507295	0.0	0.9297186254054501	-0.5402327143732775	0.0	0.9369118521977939	-0.5551108867080399	0.0	0.9263083188683753	-0.5829159725654559	0.0	0.6993952428642731	-0.5847565745391832	0.0	0.7905579829914162	-0.5450238663608753	0.0	0.8903403016238121	-0.5101298259239904	0.0	0.9131436218318258	-0.47092526224479253	0.0	0.9074313339940104	-0.4730092059271611	0.0	0.9067550805606219	-0.5122039885068776	0.0	0.6037445096784375	-0.5180246399896401	0.0	0.5938744601449074	-0.43659518624736227	0.0	0.6271589122273912	-0.47613551561278133	0.0	0.5875608985825826	-0.5451942475113718	0.0	0.5599610849185075	-0.6208397963844853	0.0	0.5619416463579081	-0.6919095890811524	0.0	0.6173177018697286	-0.518297820572754	0.0	0.6047471863335132	-0.5836495554379404	0.0	0.6232485849500894	-0.6276606065097287	0.0
70	2.3480083857442344	0.6717277564176879	-0.6123062297693124	0.0	0.6694904862521246	-0.6289570722553055	0.0	0.7827546204936767	-0.5956895989292355	0.0	0.8922102914519766	-0.5876369231195472	0.0	0.9128845497733549	-0.5490183171346817	0.0	0.9200457906358812	-0.564949569631505	0.0	0.9076820228764806	-0.5901058955593647	0.0	0.6775688473352509	-0.5946887191104614	0.0	0.7723167394567605	-0.5545976103265775	0.0	0.8716538733662871	-0.5155347856326866	0.0	0.8966772201318426	-0.4735875137377209	0.0	0.8906848658528637	-0.4758290433619815	0.0	0.8883727087354718	-0.5180467085586546	0.0	0.5698530886853007	-0.5392970455247653	0.0	0.5461510575829184	-0.45538460408293	0.0	0.5878974030885473	-0.49303060565163653	0.0	0.5550137177110424	-0.5679933704298482	0.0	0.5249134693892493	-0.6445087105887883	0.0	0.5267058612201503	-0.7138071334072199	0.0	0.5858661697531088	-0.5379121328513453	0.0	0.5767256945677373	-0.6005441829439895	0.0	0.6038148666869398	-0.6417654199277844	0.0
71	2.381551362683438	0.6496973623192898	-0.6279784962724435	0.0	0.6493726129028408	-0.6459179491234209	0.0	0.7636795717204125	-0.6115903970820974	0.0	0.8706557640898522	-0.5976422703251566	0.0	0.8938186924955015	-0.5593289756207424	0.0	0.9009841291183447	-0.5761413806953111	0.0	0.8864118471231168	-0.5993099877131643	0.0	0.6551330229656466	-0.6098868793814218	0.0	0.7512717313053567	-0.5663399305000072	0.0	0.8498812091969928	-0.5228520342096898	0.0	0.8766279175520022	-0.4781540232954782	0.0	0.8700441346406396	-0.48052386811614206	0.0	0.866754075163011	-0.5255260591170106	0.0	0.5389074617216778	-0.5649509851047085	0.0	0.5049768133535274	-0.4812065883299636	0.0	0.552299488767704	-0.5164525759198159	0.0	0.5255358577611187	-0.5943612866792727	0.0	0.4920734446267479	-0.670936403669125	0.0	0.4932023185501629	-0.7361676643319035	0.0	0.5561040375753887	-0.5615883530767665	0.0	0.5494131275755513	-0.6210033539302511	0.0	0.5818398749713463	-0.6580487060439764	0.0
